<?xml version="1.0" encoding="UTF-8"?> <svg xmlns="http://www.w3.org/2000/svg" width="142" height="20" viewBox="0 0 142 20" fill="none"><g clip-path="url(#clip0_18_1396)"><g clip-path="url(#clip1_18_1396)"><path d="M3.13496 11.0877H3.36996C3.95746 11.0877 4.63896 11.0877 5.22646 11.0877C5.60246 11.0877 5.90796 11.0185 6.18996 10.7877C6.87146 10.28 6.87146 9.33382 6.18996 8.89536C5.95496 8.7569 5.74346 8.59536 5.50846 8.59536C4.68596 8.52613 3.93396 8.59536 3.13496 8.52613V11.0877ZM3.13496 15.5415H3.36996C4.05146 15.5415 4.63896 15.5415 5.29696 15.5415C5.43796 15.5415 5.60246 15.5415 5.74346 15.5415C6.63646 15.4031 7.22396 14.5954 6.94196 13.7185C6.80096 13.1415 6.26046 12.8415 5.74346 12.7031C5.36746 12.6338 4.92096 12.6338 4.54496 12.6338C4.09846 12.6338 3.65196 12.6338 3.13496 12.6338V15.5415ZM0.150455 6.84152C0.972955 6.84152 1.86596 6.84152 2.68846 6.84152C3.81646 6.84152 4.92096 6.84151 6.04896 6.91075C6.94196 6.91075 7.69396 7.21075 8.21096 7.92614C8.79846 8.73383 8.96296 9.61075 8.65746 10.5569C8.51646 10.9954 8.21096 11.2954 7.83496 11.5031C7.69396 11.5723 7.59996 11.6415 7.45896 11.7338C7.76446 11.8723 8.04646 12.0338 8.28146 12.2415C8.86896 12.7492 9.17446 13.4877 9.17446 14.2954C9.17446 15.1723 8.86896 15.9108 8.14046 16.4877C7.62346 16.9261 7.01246 17.1569 6.35446 17.2262C6.11946 17.2262 5.90796 17.2954 5.67296 17.2954C3.88696 17.2954 2.10096 17.2954 0.314956 17.2954C0.244456 17.2954 0.173956 17.2954 0.0799561 17.2954V15.6108H0.902456V8.59536H0.0799561L0.150455 6.84152ZM135.628 14.0877C135.628 13.8569 135.628 13.6492 135.628 13.4185C135.557 12.9108 135.252 12.5415 134.805 12.3108C133.983 11.8031 133.019 12.08 132.643 12.98C132.408 13.6492 132.408 14.2262 132.573 14.8723C132.714 15.38 132.949 15.7492 133.466 15.98C134.429 16.3492 135.628 15.5415 135.628 14.5261V14.0877ZM133.701 18.98C133.395 18.9108 133.019 18.8415 132.808 18.68C132.221 18.38 131.844 17.9415 131.609 17.2954C131.915 17.2954 132.197 17.2954 132.503 17.2954C132.573 17.2954 132.573 17.3646 132.643 17.3646C133.16 18.2415 134.218 18.4723 135.111 17.9415C135.487 17.7108 135.628 17.4338 135.698 16.9954C135.698 16.5569 135.698 16.1185 135.698 15.68C135.628 15.7492 135.557 15.9108 135.463 15.98C134.57 16.9954 132.925 16.7877 132.173 15.7492C131.656 15.08 131.586 14.3646 131.656 13.5569C131.656 13.0492 131.891 12.6108 132.103 12.1723C132.855 11.0646 134.641 10.8569 135.463 12.0338C135.534 12.1031 135.604 12.1723 135.698 12.3338V11.3877H137.343V12.0569H136.521V12.2877C136.521 13.8338 136.521 15.3569 136.521 16.9031C136.521 18.0108 135.839 18.6569 134.805 18.8877C134.665 18.8877 134.571 18.9569 134.43 18.9569H133.678V18.98H133.701ZM140.633 3.61075C140.633 2.43382 139.67 1.48767 138.471 1.48767C137.273 1.48767 136.309 2.43382 136.239 3.61075C136.239 4.78767 137.202 5.73382 138.401 5.80306C139.67 5.73382 140.633 4.78767 140.633 3.61075ZM141.08 3.91075C141.01 4.34921 140.845 4.71844 140.563 5.08767C139.881 5.96459 138.777 6.33382 137.719 6.03382C136.685 5.73382 135.934 4.8569 135.863 3.84152C135.722 2.4569 136.685 1.21075 138.025 0.97998C138.025 0.97998 138.095 0.97998 138.166 0.97998H138.753H138.824C139.576 1.11844 140.093 1.41844 140.54 1.99536C140.845 2.36459 140.915 2.73383 141.056 3.17229V3.91075H141.08ZM89.145 11.8031C89.004 12.5415 88.769 13.2569 88.628 13.9954C88.393 15.0108 88.111 16.0492 87.876 17.0646C87.876 17.1338 87.876 17.2031 87.735 17.2031C87.0535 17.2031 86.3955 17.2031 85.714 17.2031C85.6435 16.9723 85.573 16.7646 85.573 16.5338C85.056 14.7108 84.539 12.8646 84.0925 11.0415C84.0925 10.9031 84.0219 10.8108 83.8575 10.8108C83.7165 10.8108 83.552 10.8108 83.3405 10.8108V9.26459H86.5365V10.8108H85.714C86.09 12.3569 86.466 13.88 86.842 15.4262C86.9125 15.2877 86.9125 15.0569 86.983 14.9185C87.359 13.0954 87.735 11.2492 88.1815 9.49536C88.1815 9.42613 88.252 9.3569 88.3225 9.3569C88.91 9.3569 89.521 9.3569 90.1085 9.3569C90.2495 9.3569 90.2495 9.42613 90.2495 9.49536C90.696 11.3877 91.072 13.3031 91.5185 15.1954C91.5185 15.2646 91.5185 15.2646 91.589 15.3338L92.623 10.7877H91.8005V9.24152H94.9965V10.7877C94.8555 10.7877 94.6205 10.7877 94.4795 10.7877C94.409 10.7877 94.3385 10.7877 94.3385 10.9262C93.8215 12.9108 93.2105 14.9415 92.6935 16.9262C92.623 17.0646 92.623 17.1569 92.4585 17.1569C91.871 17.1569 91.26 17.1569 90.6725 17.1569C90.5315 17.1569 90.5315 17.1569 90.4375 17.0185C89.991 15.3338 89.615 13.6492 89.1685 11.8954C89.2155 11.8723 89.2155 11.8723 89.145 11.8031ZM78.4055 8.87228C77.8885 10.4184 77.442 11.8723 76.9955 13.4185H79.745C79.2985 11.8723 78.852 10.3492 78.4055 8.87228ZM83.3875 15.5415V17.2262H81.014C80.873 16.7185 80.7085 16.2108 80.5675 15.68C80.497 15.4492 80.4265 15.2415 80.3325 15.0108C80.3325 14.9415 80.262 14.9415 80.1915 14.9415C78.993 14.9415 77.818 14.9415 76.69 14.9415C76.549 14.9415 76.549 15.0108 76.549 15.08C76.314 15.7492 76.173 16.3954 75.9615 17.0646C75.9615 17.1338 75.9615 17.1338 75.891 17.2031H73.4235V15.5185C73.6585 15.5185 73.87 15.5185 74.105 15.5185C74.246 15.5185 74.246 15.5185 74.34 15.38C75.233 12.5185 76.1965 9.74921 77.0895 6.88767C77.0895 6.74921 77.16 6.74921 77.3245 6.74921C78.0765 6.74921 78.805 6.74921 79.6275 6.74921C79.7685 6.74921 79.7685 6.81844 79.8625 6.88767C80.826 9.67998 81.719 12.5185 82.706 15.3108C82.7765 15.4492 82.7765 15.4492 82.941 15.4492C82.941 15.5415 83.176 15.5415 83.3875 15.5415ZM112.621 12.2415L116.052 12.3108C116.052 11.4338 115.371 10.7646 114.478 10.7646C113.585 10.7185 112.692 11.4338 112.621 12.2415ZM118.356 13.7185H112.621C112.692 14.4569 112.927 15.1031 113.515 15.5415C114.031 15.9108 114.643 15.98 115.301 15.7723C115.747 15.6338 115.982 15.3338 116.194 14.8954C116.264 14.8262 116.264 14.7569 116.429 14.7569C117.016 14.7569 117.698 14.7569 118.285 14.6877C118.285 14.8262 118.215 14.9185 118.215 14.9877C117.768 16.3723 116.805 17.18 115.301 17.4108C114.408 17.5492 113.585 17.48 112.763 17.0415C111.728 16.5338 111.047 15.6569 110.741 14.48C110.436 13.0954 110.601 11.78 111.493 10.6031C112.974 8.61844 116.123 8.71075 117.603 10.6723C118.05 11.4338 118.426 12.8415 118.356 13.7185ZM12.6055 12.2415L16.0365 12.3108C16.107 11.5031 15.449 10.8569 14.556 10.7646C13.6395 10.6492 12.676 11.3646 12.6055 12.2415ZM18.1985 13.7185H12.4645C12.4645 13.8569 12.4645 14.0185 12.535 14.1569C12.6055 14.4569 12.676 14.7338 12.8405 15.0338C13.2165 15.7031 13.8745 15.9108 14.6265 15.8415C15.308 15.7723 15.7545 15.4031 15.966 14.8262C15.966 14.7569 16.0365 14.7569 16.107 14.7569C16.6945 14.7569 17.376 14.6877 17.9635 14.6877H18.034C17.9635 15.1262 17.799 15.4954 17.5875 15.8646C17 16.7415 16.1775 17.2492 15.12 17.4108C14.227 17.5492 13.334 17.48 12.5115 17.0415C11.3835 16.4646 10.796 15.4954 10.4905 14.3415C10.2555 13.1646 10.3495 12.0108 11.0075 10.9723C12.347 8.71075 15.778 8.47998 17.3525 10.6723C17.94 11.5492 18.2455 12.5646 18.2455 13.6723C18.269 13.6492 18.269 13.6492 18.1985 13.7185ZM100.754 13.4877C100.237 13.5569 99.72 13.5569 99.2735 13.7185C98.8975 13.7877 98.592 13.8569 98.2395 14.0185C97.793 14.1569 97.652 14.5262 97.652 14.9646C97.652 15.4031 97.9575 15.7031 98.404 15.8415C99.0855 16.0723 99.8845 15.8415 100.425 15.3338C100.848 14.8031 100.848 14.1569 100.754 13.4877ZM100.754 12.1723C100.754 11.9415 100.684 11.6646 100.684 11.4338C100.613 10.9954 100.308 10.6954 99.861 10.6262C99.5555 10.5569 99.1795 10.5569 98.8975 10.6262C98.3805 10.7646 98.0045 11.0646 98.0045 11.6415C98.0045 11.7108 98.0045 11.78 98.0045 11.8723L96.0775 11.8031C96.0775 11.4338 96.148 11.0646 96.383 10.7877C96.6885 10.2108 97.2055 9.77229 97.793 9.54152C98.9915 9.10306 100.167 9.10306 101.365 9.61075C102.328 9.97998 102.775 10.7877 102.846 11.7338C102.916 12.6108 102.846 13.4877 102.846 14.4338C102.846 14.8723 102.846 15.3108 102.846 15.8185H103.527V17.3646H100.989V16.4877C100.919 16.5569 100.754 16.7185 100.684 16.7877C99.485 17.8031 97.4875 17.7338 96.3595 16.7185C95.396 15.7723 95.396 13.8569 96.8765 13.1415C97.558 12.7723 98.216 12.6338 98.968 12.5646C99.5555 12.4954 100.167 12.4261 100.824 12.3338C100.684 12.1723 100.684 12.1723 100.754 12.1723ZM40.8525 10.7185C41.158 10.4184 41.3695 10.1415 41.675 9.84152C42.3565 9.26459 43.085 9.03383 43.978 9.17229C44.6595 9.31075 45.012 9.67998 45.247 10.28C45.3175 10.4184 45.3175 10.58 45.388 10.7185C45.4585 10.6492 45.529 10.4877 45.623 10.4184C45.999 9.84152 46.516 9.31075 47.268 9.17229C47.9495 9.03383 48.6075 9.03382 49.1245 9.47228C49.571 9.84152 49.712 10.3492 49.806 10.8569C49.806 10.9954 49.806 11.2262 49.806 11.3646C49.806 12.9108 49.806 14.4338 49.806 15.9108V16.1415H50.934V17.0877H48.7015V16.8569C48.7015 15.0338 48.7015 13.28 48.7015 11.4338C48.7015 11.2031 48.7015 11.0646 48.631 10.8569C48.49 10.1184 47.9495 9.74921 47.1505 9.97998C46.563 10.1184 46.187 10.4877 45.811 10.9954C45.5055 11.4338 45.3645 11.9415 45.3645 12.4492C45.3645 13.6261 45.3645 14.78 45.3645 15.9569V16.1877H46.563V17.1338H44.119V16.9031C44.119 15.08 44.119 13.2338 44.119 11.4108C44.119 11.18 44.119 10.9723 44.0485 10.7415C43.9075 10.3031 43.602 10.0723 43.1555 10.0031C42.474 9.93383 42.0275 10.2338 41.581 10.6723C41.064 11.2492 40.7585 11.8492 40.829 12.6569C40.829 13.7646 40.829 14.8492 40.829 16.0261V16.2569H42.0275V17.2031H38.62V16.2569H39.748V10.1877H38.62V9.24152H40.9935C40.782 9.74921 40.782 10.2108 40.8525 10.7185ZM27.199 12.98H24.7315C24.7315 12.68 24.7315 12.3108 24.802 12.0338H28.5385V17.1569H27.3635V15.5415C27.293 15.6108 27.293 15.6108 27.293 15.68C26.541 16.7877 25.5775 17.3646 24.238 17.4338C23.204 17.4338 22.3815 17.0646 21.559 16.4185C20.666 15.6108 20.149 14.5954 19.914 13.4877C19.6085 12.0338 19.773 10.5569 20.3605 9.17229C20.807 8.22613 21.4885 7.41844 22.452 6.97998C24.0265 6.24152 25.9535 6.54152 27.0815 8.1569C27.0815 8.22614 27.152 8.22613 27.2225 8.29536V6.67998H28.3505V9.97998H27.1285C27.058 9.54152 26.823 9.17229 26.6115 8.80306C26.024 7.99536 25.2015 7.5569 24.238 7.5569C23.345 7.5569 22.593 7.99536 22.076 8.66459C21.559 9.24152 21.324 9.97998 21.183 10.7877C21.042 11.8954 21.1125 12.9108 21.4885 13.9262C21.7235 14.5031 22.0055 15.0338 22.5225 15.4723C23.4155 16.28 24.5435 16.4185 25.5775 15.9108C26.6115 15.4723 27.293 14.2262 27.199 12.98ZM58.8065 13.2108C58.8065 13.0723 58.8065 12.9108 58.8065 12.7031C58.736 12.1262 58.5715 11.5262 58.2895 11.0185C57.702 10.2108 56.715 9.91075 55.822 10.3492C54.9995 10.7185 54.177 11.7338 54.3415 12.8415C54.412 13.4185 54.3415 13.9492 54.4825 14.5261C54.6235 15.4723 55.6105 16.28 56.574 16.4185C57.3965 16.4877 58.1485 16.0492 58.501 15.3108C58.6655 14.5954 58.8065 13.9262 58.8065 13.2108ZM53.0725 7.34921H52.0385V6.40306H54.271V10.9492C54.3415 10.88 54.3415 10.8108 54.412 10.8108C54.647 10.4415 54.9995 10.0723 55.3755 9.79536C56.4095 9.0569 57.6785 9.0569 58.736 9.93382C59.488 10.5108 59.864 11.3185 60.0755 12.1954C60.381 13.5108 60.2165 14.7569 59.488 15.9338C59.112 16.5108 58.595 17.0415 57.9135 17.3185C56.8795 17.6877 55.681 17.3877 54.929 16.58C54.788 16.3492 54.553 16.1415 54.3415 15.9108V17.2954H52.0385V16.3492H53.1665V7.34921H53.0725ZM35.189 13.2108C35.1185 13.2108 35.048 13.2108 35.048 13.2108C34.3665 13.28 33.7085 13.4415 32.9565 13.58C32.51 13.6492 32.0635 13.8108 31.6875 14.0877C31.4525 14.2262 31.241 14.4569 31.241 14.8262C31.1 15.7031 31.758 16.58 32.7215 16.6492C33.7555 16.7185 34.8835 15.9108 35.095 14.8954C35.189 14.2262 35.095 13.7185 35.189 13.2108ZM36.223 16.3492H37.351C37.351 16.6492 37.4215 17.0185 37.4215 17.2954H35.1185V15.9108C35.048 15.98 35.048 15.98 35.048 15.98C34.4605 16.9262 33.5675 17.3646 32.4395 17.4338C31.476 17.5031 30.724 17.1338 30.207 16.3262C29.7605 15.5877 29.6195 14.8723 30.066 14.0646C30.301 13.5569 30.7475 13.3262 31.2645 13.1185C31.946 12.8185 32.6745 12.68 33.4265 12.5415C33.9435 12.4723 34.5545 12.4031 35.142 12.3108C35.142 11.9415 35.142 11.5031 35.0715 11.1338C34.9305 10.5569 34.484 10.2569 33.9435 10.1184C33.497 9.97998 32.98 10.0492 32.5335 10.1184C31.946 10.2569 31.57 10.6954 31.4055 11.2262C31.335 11.3646 31.335 11.4569 31.1 11.4569C30.724 11.4569 30.4185 11.4569 30.066 11.4569C30.301 10.5108 30.7475 9.84152 31.6405 9.40306C32.6745 8.9646 33.732 8.9646 34.766 9.40306C35.5885 9.77229 36.035 10.4184 36.176 11.2954C36.176 11.5261 36.176 11.6646 36.176 11.8723C36.176 13.2569 36.176 14.5723 36.176 15.98L36.223 16.3492ZM66.397 12.6108H70.7915C70.7915 11.9415 70.5565 11.4338 70.2745 10.9262C69.828 10.3492 69.311 10.0492 68.559 10.1877C67.1489 10.3492 66.491 11.3646 66.397 12.6108ZM72.1545 13.4877H66.35C66.4205 13.7877 66.4205 13.9954 66.491 14.2262C66.5615 14.6646 66.726 15.1031 67.008 15.5415C67.5955 16.4185 68.935 16.7185 69.7575 16.2108C70.1335 15.98 70.345 15.6338 70.58 15.2646C70.6505 15.1262 70.721 15.0338 70.8855 15.0338C71.2615 15.0338 71.6375 15.0338 72.0135 15.0338C71.943 15.1723 71.943 15.3338 71.8725 15.4723C71.3555 16.6492 69.9455 17.4569 68.5825 17.2954C66.726 17.1569 65.457 15.9108 65.1515 14.0646C64.9165 12.8877 65.081 11.7338 65.739 10.6954C66.256 9.81844 67.0785 9.24152 68.1125 9.07998C69.593 8.84921 70.956 9.58767 71.614 10.9031C71.99 11.6415 72.131 12.4492 72.131 13.3262C72.1545 13.4877 72.1545 13.4877 72.1545 13.4877ZM107.24 15.68H108.204V17.2262H104.467V15.68H105.29V10.8569H104.467V9.31075H107.216V10.4877C107.287 10.4184 107.357 10.2569 107.357 10.1877C107.663 9.74921 108.039 9.31075 108.627 9.24152C109.073 9.10305 109.59 9.17228 110.036 9.24152L110.107 9.31075C110.107 9.88767 110.107 10.4877 110.107 11.0646C109.872 11.0646 109.661 10.9954 109.426 10.9954C108.838 10.9262 108.227 11.0646 107.781 11.4338C107.405 11.7338 107.264 12.1723 107.193 12.6108C107.193 13.5569 107.193 14.5031 107.193 15.5415C107.17 15.6108 107.17 15.6108 107.24 15.68ZM61.8615 7.27998H60.7335V6.40306H63.0365V16.28H64.0705V17.2262H60.7335V16.28H61.8615V7.27998ZM122.162 14.3646C122.162 14.8031 122.233 15.2415 122.397 15.68C122.703 16.2569 123.149 16.6262 123.808 16.6262C124.465 16.6262 125.006 16.3262 125.288 15.7492C125.429 15.38 125.523 15.08 125.593 14.6415C125.664 14.0646 125.593 13.4646 125.288 12.9569C124.982 12.38 124.465 12.08 123.808 12.08C123.149 12.08 122.773 12.4492 122.468 12.9569C122.162 13.4185 122.162 13.8569 122.162 14.3646ZM126.463 14.2262C126.463 14.9646 126.322 15.6108 125.946 16.1185C125.358 16.9954 124.536 17.2954 123.478 17.2262C122.515 17.1569 121.834 16.5569 121.458 15.68C121.082 14.7338 121.011 13.6954 121.458 12.7492C121.904 11.8031 122.726 11.2954 123.831 11.2954C124.935 11.2954 125.687 11.8031 126.134 12.7492C126.392 13.28 126.463 13.7877 126.463 14.2262ZM129.753 17.1569H127.144V16.4877H127.967V12.1723H127.144V11.5031H128.86V12.68C129.165 12.1723 129.541 11.6646 130.129 11.4338C130.434 11.3646 130.952 11.3646 131.257 11.4338V12.2415C131.116 12.2415 130.951 12.2415 130.81 12.1723C129.777 12.1031 128.883 12.8415 128.883 13.8569C128.883 14.6646 128.883 15.5415 128.883 16.3492V16.4185H129.847L129.753 17.1569ZM119.319 16.2108H120.282V17.1569H119.319V16.2108ZM137.79 2.43382V3.31075C138.096 3.31075 138.378 3.31075 138.683 3.31075C138.753 3.31075 138.824 3.31075 138.918 3.24152C139.153 3.17228 139.223 3.01075 139.153 2.73382C139.153 2.50305 139.012 2.3646 138.777 2.3646C138.472 2.43383 138.166 2.43382 137.79 2.43382ZM139.059 3.54152C139.364 3.61075 139.435 3.84152 139.435 4.04921C139.435 4.2569 139.505 4.5569 139.505 4.78767C139.059 4.78767 139.129 4.8569 139.059 4.41844C139.059 4.27998 139.059 4.11844 138.988 3.97998C138.918 3.74921 138.848 3.61075 138.542 3.61075C138.237 3.61075 137.954 3.61075 137.649 3.61075V4.71844H137.273V2.08767C137.344 2.08767 137.414 2.08767 137.578 2.08767C137.954 2.08767 138.33 2.08767 138.706 2.08767C139.082 2.08767 139.294 2.31844 139.388 2.59536C139.6 3.03383 139.435 3.31075 139.059 3.54152Z" fill="white"></path></g></g><defs><clipPath id="clip0_18_1396"><rect width="141" height="19" fill="white" transform="translate(0.0799561 0.47998)"></rect></clipPath><clipPath id="clip1_18_1396"><rect width="141" height="19" fill="white" transform="translate(0.0799561 0.47998)"></rect></clipPath></defs></svg> 