<?xml version="1.0" encoding="UTF-8"?> <svg xmlns="http://www.w3.org/2000/svg" width="27" height="30" viewBox="0 0 27 30" fill="none"><g clip-path="url(#clip0_18_1401)"><g clip-path="url(#clip1_18_1401)"><mask id="mask0_18_1401" style="mask-type:luminance" maskUnits="userSpaceOnUse" x="0" y="0" width="27" height="29"><path d="M26.86 0.97998H0.859985V28.98H26.86V0.97998Z" fill="white"></path></mask><g mask="url(#mask0_18_1401)"><path d="M4.9344 26.946C4.87912 28.1771 4.02831 28.9781 2.89127 28.9781C2.29511 28.9781 1.78186 28.7544 1.37718 28.3128C1.03962 27.9477 0.859985 27.4736 0.859985 26.9402C0.859985 26.4069 1.07318 25.9041 1.48378 25.5122C1.87267 25.1356 2.35039 24.9502 2.9347 24.9502C3.74998 24.9502 4.38167 25.3383 4.68962 26.0074H3.97501C3.71049 25.6805 3.33938 25.5122 2.8893 25.5122C2.51226 25.5122 2.16285 25.6537 1.89833 25.9156C1.61604 26.1928 1.46009 26.5751 1.46009 26.946C1.46009 27.3551 1.60617 27.7259 1.86477 27.9878C2.14114 28.265 2.51818 28.4237 2.8893 28.4237C3.49138 28.4237 3.96317 28.1121 4.26717 27.4927H2.45501V26.9479H4.93045L4.9344 26.946Z" fill="white"></path><path d="M5.55813 28.9035H4.94421L6.50962 25.0286H7.07222L8.63565 28.9035H8.00001L7.56178 27.7756H6.00821L5.55813 28.9035ZM6.78993 25.7588L6.21549 27.2308H7.35253L6.78993 25.7588Z" fill="white"></path><path d="M8.85281 28.9035V25.0286H9.71349L10.8723 28.0261L12.031 25.0286H12.8818V28.9035H12.335L12.3745 25.5409L11.0736 28.9035H10.663L9.36803 25.5409L9.40751 28.9035H8.85083H8.85281Z" fill="white"></path><path d="M15.4303 28.9799C14.8381 28.9799 14.3387 28.7677 13.9439 28.3644C13.5669 27.9782 13.3754 27.4984 13.3754 26.9249C13.3754 26.3915 13.5846 25.9002 13.9834 25.5237C14.3782 25.1471 14.8737 24.9521 15.4402 24.9521C16.3739 24.9521 17.1734 25.5466 17.432 26.5005H16.3739C16.1607 26.1182 15.839 25.9175 15.4461 25.9175C14.85 25.9175 14.3821 26.3648 14.3821 26.9306C14.3821 27.5462 14.8776 28.0203 15.4284 28.0203C15.8054 28.0203 16.1371 27.8234 16.3502 27.464H17.4143C17.1497 28.4064 16.3897 28.978 15.4284 28.978L15.4303 28.9799Z" fill="white"></path><path d="M18.4053 28.9035H17.3353L18.8711 25.0286H19.6706L21.2064 28.9035H20.1266L19.9292 28.3415H18.6066L18.4033 28.9035H18.4053ZM19.2719 26.2979L18.8731 27.5405H19.6667L19.2719 26.2979Z" fill="white"></path><path d="M21.2853 28.9035V25.0286H22.6138C23.0363 25.0286 23.3561 25.0553 23.6265 25.2408C23.9818 25.4797 24.1674 25.8449 24.1674 26.3247C24.1674 26.9517 23.8298 27.4201 23.2613 27.573L24.2404 28.9035H23.0303L22.2644 27.6552V28.9035H21.2853ZM22.4559 26.816C22.9395 26.816 23.1764 26.6955 23.1764 26.3476C23.1764 26.0265 22.9691 25.8946 22.5349 25.8946H22.2644V26.816H22.4559Z" fill="white"></path><path d="M24.6846 28.9035V25.0286H26.856V25.885H25.6637V26.512H26.856V27.3723H25.6637V28.049H26.856V28.9054H24.6846V28.9035Z" fill="white"></path><path d="M26.1474 14.3864C26.0408 14.3271 25.9223 14.2889 25.794 14.2717C25.7644 14.266 25.7348 14.266 25.7032 14.2621C25.6874 14.2621 25.6716 14.2583 25.6558 14.2583H25.6104C25.5709 14.2583 25.5295 14.2545 25.49 14.2583H17.6649C17.1122 14.2583 16.6621 14.6923 16.6621 15.2294C16.6621 15.7666 17.1102 16.2006 17.6649 16.2006H20.705C20.8056 16.2006 20.8866 16.2808 20.8866 16.3783C20.8866 16.4338 20.855 16.4816 20.8135 16.5141C19.1474 17.3762 17.0036 17.8981 14.6565 17.8981C14.086 17.8981 13.5274 17.8656 12.9845 17.8063V20.0105C13.4583 20.0449 13.938 20.064 14.4256 20.064C17.6906 20.064 20.6596 19.2917 22.8863 18.0281V18.0319C22.9139 18.0185 22.9455 18.009 22.979 18.009C23.0876 18.009 23.1764 18.095 23.1764 18.2001C23.1764 18.2193 23.1725 18.2384 23.1666 18.2556L22.7027 19.4752C22.4579 20.1175 22.7974 20.8287 23.4607 21.0638C23.6068 21.1154 23.7548 21.1403 23.9029 21.1403C24.424 21.1403 24.9116 20.8306 25.1031 20.3297L26.781 15.9195C27.008 15.3212 26.7238 14.6655 26.1474 14.3883V14.3864Z" fill="white"></path><path d="M14.6585 6.05738C17.0234 6.05738 19.1868 6.585 20.8588 7.45862C20.8588 7.45862 21.9208 8.19843 22.4262 7.48921C23.0066 6.67293 21.8478 6.16635 21.8478 6.16635C19.7731 5.22199 17.205 4.66187 14.4275 4.66187C13.9399 4.66187 13.4602 4.68099 12.9865 4.7154V6.14914C13.5293 6.08988 14.088 6.05738 14.6585 6.05738Z" fill="white"></path><path d="M2.64447 0.97998C1.66732 0.97998 0.875732 1.74655 0.875732 2.69282V21.3735C0.875732 22.3198 1.66732 23.0864 2.64447 23.0864H12.9864V20.0086C6.76428 19.5689 1.92987 16.3134 1.92987 12.362C1.92987 8.41058 6.76428 5.15503 12.9864 4.71535V0.97998H2.64447Z" fill="white"></path><path d="M5.06262 11.9758C5.06262 14.893 8.48362 17.315 12.9864 17.8025V6.14905C8.48362 6.63652 5.06262 9.05859 5.06262 11.9758Z" fill="white"></path></g></g></g><defs><clipPath id="clip0_18_1401"><rect width="26" height="29" fill="white" transform="translate(0.859985 0.47998)"></rect></clipPath><clipPath id="clip1_18_1401"><rect width="26" height="29" fill="white" transform="translate(0.859985 0.47998)"></rect></clipPath></defs></svg> 